<svg width="64" height="64" viewBox="0 0 64 64" fill="none" xmlns="http://www.w3.org/2000/svg">
<rect width="64" height="64" rx="18" fill="#050505"/>
<path d="M32 8C20.5 8 13 16.4 13 28.2V48.8C13 52.6 17.4 54.7 20.4 52.3L24.2 49.2L28 52.3C30.3 54.2 33.7 54.2 36 52.3L39.8 49.2L43.6 52.3C46.6 54.7 51 52.6 51 48.8V28.2C51 16.4 43.5 8 32 8Z" fill="#FF7A00"/>
<path d="M24 30C26.2091 30 28 28.2091 28 26C28 23.7909 26.2091 22 24 22C21.7909 22 20 23.7909 20 26C20 28.2091 21.7909 30 24 30Z" fill="#050505"/>
<path d="M40 30C42.2091 30 44 28.2091 44 26C44 23.7909 42.2091 22 40 22C37.7909 22 36 23.7909 36 26C36 28.2091 37.7909 30 40 30Z" fill="#050505"/>
<path d="M23 40C27 43 37 43 41 40" stroke="#050505" stroke-width="4" stroke-linecap="round"/>
<path d="M12 58H52" stroke="#FF7A00" stroke-width="2" stroke-linecap="round" opacity=".65"/>
</svg>